<?xml version="1.0" standalone="no"?>
<!DOCTYPE svg PUBLIC "-//W3C//DTD SVG 20010904//EN"
 "http://www.w3.org/TR/2001/REC-SVG-20010904/DTD/svg10.dtd">
<svg version="1.0" xmlns="http://www.w3.org/2000/svg"
 width="422.000000pt" height="422.000000pt" viewBox="0 0 422.000000 422.000000"
 preserveAspectRatio="xMidYMid meet">
<metadata>
Created by potrace 1.11, written by Peter Selinger 2001-2013
</metadata>
<g transform="translate(0.000000,422.000000) scale(0.100000,-0.100000)"
fill="#000000" stroke="none">
<path d="M0 2110 l0 -2110 2110 0 2110 0 0 2110 0 2110 -2110 0 -2110 0 0
-2110z m3453 871 c41 -11 116 -41 165 -67 61 -31 96 -44 110 -40 20 7 42 52
42 87 0 15 8 19 31 19 l32 0 -6 -82 c-4 -46 -7 -174 -7 -285 l0 -203 -28 0
c-27 0 -28 2 -41 77 -45 265 -193 438 -386 451 -199 13 -328 -115 -298 -294 6
-34 18 -77 28 -97 27 -58 148 -164 315 -277 225 -152 297 -208 367 -283 111
-119 153 -250 132 -407 -14 -101 -50 -172 -123 -246 -127 -126 -330 -182 -589
-163 -106 8 -195 33 -299 85 -99 50 -120 45 -136 -32 -7 -33 -12 -39 -37 -42
l-28 -4 6 249 c4 136 7 290 7 341 l0 93 28 -3 c26 -3 27 -6 34 -78 25 -247
128 -445 265 -510 105 -49 256 -50 352 -1 94 48 149 159 137 274 -15 148 -108
253 -392 445 -203 137 -281 203 -337 285 -54 78 -78 149 -84 242 -14 205 95
371 287 440 133 49 322 59 453 26z m-1657 -120 c-3 -57 -6 -196 -6 -308 l0
-204 -26 3 c-24 3 -28 10 -54 113 -77 306 -190 432 -398 443 l-83 5 3 -769 c3
-746 4 -770 23 -809 26 -52 70 -73 168 -81 70 -6 77 -9 77 -28 l0 -22 -465 1
-465 0 0 21 c0 19 8 22 70 28 92 8 141 29 166 69 18 31 19 59 22 811 l2 779
-85 -5 c-106 -7 -176 -39 -236 -106 -54 -61 -112 -182 -144 -302 -41 -150 -38
-145 -63 -145 l-23 0 -4 260 c-2 143 -6 280 -10 305 l-7 45 772 0 773 0 -7
-104z m683 -559 c40 -22 71 -73 71 -120 0 -80 -54 -138 -158 -168 l-54 -16 30
-31 c39 -40 52 -75 52 -138 0 -100 -70 -180 -191 -219 -61 -19 -87 -21 -178
-17 -124 5 -191 24 -253 71 -141 108 -104 306 69 372 l44 17 -41 24 c-131 78
-67 217 106 231 107 8 184 -33 184 -99 0 -38 -45 -73 -84 -65 -42 9 -56 24
-56 61 0 24 7 39 26 54 23 18 24 22 10 27 -34 13 -108 -3 -134 -29 -33 -34
-41 -109 -17 -161 16 -33 20 -36 49 -31 39 8 78 -17 59 -36 -10 -10 -21 -10
-52 1 -36 12 -42 11 -70 -9 -79 -57 -91 -181 -24 -253 46 -49 116 -71 228 -72
55 -1 118 5 141 11 84 26 154 96 154 155 0 41 -25 94 -53 112 -22 15 -31 15
-123 -10 -123 -33 -172 -57 -180 -88 -12 -48 41 -96 106 -96 35 0 37 3 10 30
-43 43 -10 110 54 110 78 0 110 -90 45 -129 -72 -44 -178 -34 -223 20 -37 44
-37 124 0 169 38 45 85 65 256 111 162 43 180 50 216 82 25 23 27 35 10 72
-15 32 -56 55 -100 55 -32 0 -32 0 -10 -16 15 -11 22 -25 22 -50 0 -29 -5 -37
-34 -51 -57 -27 -116 1 -116 56 0 27 29 63 60 74 34 12 117 6 149 -11z"/>
</g>
</svg>
